<svg width="192" height="46" viewBox="0 0 192 46" fill="none" xmlns="http://www.w3.org/2000/svg">
<path d="M13.565 29.5082L16.5625 24.4949C16.871 24.0228 17.4998 23.8502 18.0214 24.1138C18.213 24.2074 18.3602 24.3484 18.4644 24.5137L21.4406 29.4912C21.5397 29.6569 21.6726 29.7932 21.8183 29.9145L26.0128 22.8994L21.8179 15.8838C21.6723 16.0049 21.5397 16.1412 21.4405 16.3069L18.4755 21.2656L18.47 21.2625C18.3769 21.4266 18.2436 21.5653 18.0627 21.666C17.5254 21.9656 16.8459 21.7926 16.5287 21.2805L13.565 16.324C13.2542 15.8043 12.6797 15.4839 12.0581 15.4839L5.17928 15.484C4.55762 15.484 3.98321 15.8042 3.67246 16.324L0.233057 22.076C-0.0777433 22.5959 -0.0776445 23.2364 0.233106 23.7561L3.67261 29.5083C3.98336 30.028 4.55772 30.3482 5.17932 30.3482L12.0581 30.3484C12.6797 30.3483 13.2542 30.0281 13.565 29.5082Z" fill="#1C3564"/>
<path d="M38.7537 30.3329L32.7048 30.3329L32.7048 30.3303C32.6822 30.335 32.6624 30.3296 32.6464 30.3306C32.2969 30.3062 31.9603 30.1153 31.7679 29.7823C31.5721 29.4433 31.5801 29.0367 31.7623 28.7141L31.7548 28.7099L34.7853 23.4659C34.8851 23.293 34.9414 23.1062 34.9777 22.9161L26.5231 22.916L22.2959 30.2312C22.4788 30.295 22.6688 30.3397 22.8684 30.3396L28.902 30.3396L28.9017 30.3472C29.2853 30.3437 29.6515 30.5427 29.851 30.8879C30.0434 31.2208 30.0406 31.6075 29.8845 31.9318L29.8849 31.9321L26.8368 37.2066C26.5236 37.7486 26.5236 38.4163 26.8367 38.9582L30.3029 44.9561C30.6162 45.4982 31.195 45.8321 31.8214 45.8321L38.7537 45.832C39.3802 45.8321 39.9589 45.4982 40.2721 44.9562L43.7384 38.9584C44.0516 38.4164 44.0515 37.7486 43.7383 37.2066L40.2721 31.2086C39.959 30.6667 39.3802 30.3329 38.7537 30.3329Z" fill="#1C3564"/>
<path d="M38.7574 0H31.8301C31.204 0 30.6255 0.325006 30.3126 0.852558L26.8487 6.69056C26.5358 7.21811 26.5358 7.86822 26.8488 8.39568L29.8332 13.4257C30.1364 13.9551 29.9505 14.6197 29.4093 14.9238C29.2271 15.0261 29.0348 15.069 28.8396 15.0646L28.8397 15.0709H22.8677C22.6684 15.0709 22.4786 15.1145 22.2959 15.1763L26.5204 22.2966L34.9686 22.2967C34.9324 22.1117 34.8762 21.9297 34.7764 21.7615L31.7792 16.7097C31.6821 16.5375 31.6291 16.3409 31.641 16.1309C31.6656 15.5545 32.1381 15.1083 32.7197 15.0862L38.7575 15.0862C39.3835 15.0862 39.962 14.7612 40.275 14.2336L43.7385 8.39558C44.0515 7.86803 44.0515 7.21807 43.7385 6.69061L40.2748 0.852558C39.9619 0.325153 39.3834 0 38.7574 0Z" fill="#1C3564"/>
<path d="M52.0254 14.2451H56.5837V27.674H62.6092V14.2451H67.1669V27.674H69.3673V35.3031H65.2809V31.4369H52.0254V14.2451Z" fill="#1C3564"/>
<path d="M81.7544 18.0673H76.3686V20.9532H81.4671V24.7754H76.3686V27.7649H81.7544V31.587H71.8447V14.2451H81.7544V18.0673Z" fill="#1C3564"/>
<path d="M84.2314 31.587L87.1651 14.2451H91.6048L95.109 23.5013L98.822 14.2451H103.313L105.909 31.587H101.418L100.146 21.6031L95.9661 31.587H94.1748L90.1765 21.6031L88.6969 31.587H84.2314Z" fill="#1C3564"/>
<path d="M118.916 18.0673H113.53V20.9532H118.628V24.7754H113.53V27.7649H118.916V31.587H109.006V14.2451H118.916V18.0673Z" fill="#1C3564"/>
<path d="M127.119 20.7189H133.603V14.2451H138.116V31.587H133.603V24.5668H127.119V31.587H122.632V14.2451H127.119V20.7189Z" fill="#1C3564"/>
<path d="M148.704 18.0673V31.587H144.249V18.0673H140.593V14.2451H152.36V18.0673H148.704Z" fill="#1C3564"/>
<path d="M159.283 14.2451L162.597 21.9673L165.495 14.2451H170.323L162.493 31.587H157.717L160.144 26.725L154.22 14.2451H159.283Z" fill="#1C3564"/>
<path d="M170.322 31.587L173.256 14.2451H177.696L181.2 23.5013L184.913 14.2451H189.404L192 31.587H187.509L186.236 21.6031L182.057 31.587H180.266L176.267 21.6031L174.788 31.587H170.322Z" fill="#1C3564"/>
</svg>
